<svg width="23" height="16" viewBox="0 0 23 16" fill="none" xmlns="http://www.w3.org/2000/svg">
<rect x="0.5" y="0.5" width="22" height="15" rx="2" fill="#1F72CD" stroke="white"/>
<path fill-rule="evenodd" clip-rule="evenodd" d="M4.1443 5.62036L2 10.576H4.56703L4.88527 9.78586H5.61269L5.93093 10.576H8.75651V9.97294L9.00828 10.576H10.4699L10.7217 9.9602V10.576H16.5981L17.3127 9.80638L17.9817 10.576L21 10.5824L18.8489 8.11201L21 5.62036H18.0285L17.333 6.37575L16.685 5.62036H10.2922L9.74322 6.89945L9.18139 5.62036H6.61972V6.2029L6.33475 5.62036H4.1443ZM12.9196 6.32407H16.2941L17.3262 7.48836L18.3916 6.32407H19.4237L17.8555 8.11131L19.4237 9.87796H18.3448L17.3127 8.70015L16.2419 9.87796H12.9196V6.32407ZM13.7529 7.70948V7.06034V7.05972H15.8585L16.7773 8.09787L15.8178 9.14169H13.7529V8.43301H15.5939V7.70948H13.7529ZM4.64098 6.32407H5.89227L7.31459 9.68451V6.32407H8.68533L9.7839 8.73349L10.7964 6.32407H12.1603V9.88006H11.3304L11.3236 7.09361L10.1137 9.88006H9.3713L8.15461 7.09361V9.88006H6.44733L6.12366 9.08285H4.37499L4.05199 9.87936H3.13725L4.64098 6.32407ZM4.67359 8.34589L5.2497 6.92573L5.82515 8.34589H4.67359Z" fill="white"/>
</svg>
