<svg width="23" height="16" viewBox="0 0 23 16" fill="none" xmlns="http://www.w3.org/2000/svg">
<rect x="0.5" y="0.5" width="22" height="15" rx="2" fill="white" stroke="white"/>
<path d="M12.6371 12.9999C15.3068 13.013 17.7436 10.7708 17.7436 8.04325C17.7436 5.06072 15.3068 2.99889 12.6371 3H10.3395C7.63794 2.99889 5.41406 5.06128 5.41406 8.04325C5.41406 10.7714 7.63794 13.013 10.3395 12.9999H12.6371Z" fill="#0079BE"/>
<path d="M10.3489 3.41333C7.88001 3.41417 5.87973 5.46264 5.87891 7.99094C5.87973 10.519 7.88001 12.5674 10.3489 12.5683C12.818 12.5674 14.8191 10.519 14.8194 7.99094C14.8191 5.46264 12.8183 3.41417 10.3489 3.41333ZM7.51567 7.99094C7.51515 7.40638 7.68848 6.83525 8.01299 6.3522C8.3375 5.86915 8.79811 5.49666 9.33461 5.2834V10.6982C8.79806 10.4851 8.3374 10.1127 8.01287 9.62965C7.68835 9.14663 7.51506 8.5755 7.51567 7.99094ZM11.3629 10.6993V5.28312C11.8998 5.49608 12.3608 5.86854 12.6855 6.35175C13.0103 6.83496 13.1836 7.40639 13.1829 7.99122C13.1835 8.57603 13.0101 9.14741 12.6854 9.63059C12.3607 10.1138 11.8997 10.4863 11.3629 10.6993Z" fill="white"/>
<path d="M12.6371 12.9999C15.3068 13.013 17.7436 10.7708 17.7436 8.04325C17.7436 5.06072 15.3068 2.99889 12.6371 3H10.3395C7.63794 2.99889 5.41406 5.06128 5.41406 8.04325C5.41406 10.7714 7.63794 13.013 10.3395 12.9999H12.6371Z" fill="#0079BE"/>
<path d="M10.3489 3.41333C7.88001 3.41417 5.87973 5.46264 5.87891 7.99094C5.87973 10.519 7.88001 12.5674 10.3489 12.5683C12.818 12.5674 14.8191 10.519 14.8194 7.99094C14.8191 5.46264 12.8183 3.41417 10.3489 3.41333ZM7.51567 7.99094C7.51515 7.40638 7.68848 6.83525 8.01299 6.3522C8.3375 5.86915 8.79811 5.49666 9.33461 5.2834V10.6982C8.79806 10.4851 8.3374 10.1127 8.01287 9.62965C7.68835 9.14663 7.51506 8.5755 7.51567 7.99094ZM11.3629 10.6993V5.28312C11.8998 5.49608 12.3608 5.86854 12.6855 6.35175C13.0103 6.83496 13.1836 7.40639 13.1829 7.99122C13.1835 8.57603 13.0101 9.14741 12.6854 9.63059C12.3607 10.1138 11.8997 10.4863 11.3629 10.6993Z" fill="white"/>
</svg>
