<svg width="23" height="16" viewBox="0 0 23 16" fill="none" xmlns="http://www.w3.org/2000/svg">
<rect x="0.5" y="0.5" width="22" height="15" rx="2" fill="white" stroke="white"/>
<path fill-rule="evenodd" clip-rule="evenodd" d="M11.7154 11.6974C10.8378 12.4337 9.69938 12.8782 8.45543 12.8782C5.67979 12.8782 3.42969 10.6652 3.42969 7.93536C3.42969 5.20549 5.67979 2.99249 8.45543 2.99249C9.69939 2.99249 10.8378 3.43699 11.7154 4.17329C12.593 3.43699 13.7314 2.99251 14.9753 2.99251C17.751 2.99251 20.0011 5.2055 20.0011 7.93537C20.0011 10.6652 17.751 12.8782 14.9753 12.8782C13.7314 12.8782 12.593 12.4337 11.7154 11.6974Z" fill="#ED0006"/>
<path fill-rule="evenodd" clip-rule="evenodd" d="M11.7148 11.6974C12.7954 10.7908 13.4807 9.44179 13.4807 7.93536C13.4807 6.42892 12.7954 5.07989 11.7148 4.17327C12.5924 3.43698 13.7308 2.99249 14.9748 2.99249C17.7504 2.99249 20.0005 5.20549 20.0005 7.93536C20.0005 10.6652 17.7504 12.8782 14.9748 12.8782C13.7308 12.8782 12.5924 12.4337 11.7148 11.6974Z" fill="#F9A000"/>
<path fill-rule="evenodd" clip-rule="evenodd" d="M11.715 11.6975C12.7956 10.7908 13.4808 9.44182 13.4808 7.9354C13.4808 6.42898 12.7956 5.07995 11.715 4.17334C10.6344 5.07995 9.94922 6.42898 9.94922 7.9354C9.94922 9.44182 10.6344 10.7908 11.715 11.6975Z" fill="#FF5E00"/>
</svg>
